<svg width="121" height="121" viewBox="0 0 121 121" fill="none" xmlns="http://www.w3.org/2000/svg">
<g id="car-of-hatchback-model" clip-path="url(#clip0_1_461)">
<g id="Group">
<g id="Group_2">
<path id="Vector" d="M20.0749 64.7949C14.8398 64.7949 10.5947 69.0364 10.5947 74.2738C10.5947 74.6795 10.6275 75.0755 10.6785 75.4666C11.2652 80.1393 15.2443 83.7552 20.0749 83.7552C25.039 83.7552 29.1044 79.9389 29.5161 75.0816C29.538 74.8131 29.5574 74.5471 29.5574 74.2714C29.5587 69.0376 25.3135 64.7949 20.0749 64.7949ZM15.3269 70.7016L17.2618 72.6365C17.1112 72.8953 16.9934 73.1722 16.9181 73.471H14.1912C14.3333 72.4361 14.7305 71.4948 15.3269 70.7016ZM14.1827 75.1107H16.9278C17.0055 75.401 17.1197 75.6804 17.2703 75.933L15.3318 77.8704C14.7342 77.0821 14.3273 76.1383 14.1827 75.1107ZM19.2562 80.1648C18.2299 80.0227 17.2958 79.6206 16.5063 79.0242L18.4339 77.0966C18.6866 77.2448 18.9659 77.3529 19.2562 77.4282V80.1648ZM19.2562 71.1207C18.9574 71.196 18.6781 71.3162 18.4181 71.4705L16.4869 69.538C17.28 68.9356 18.2226 68.536 19.2562 68.3926V71.1207ZM20.8984 68.3926C21.9332 68.536 22.8746 68.9356 23.6677 69.5392L21.7365 71.4705C21.4765 71.3162 21.1972 71.196 20.8984 71.1207V68.3926ZM20.8984 80.1636V77.4282C21.1899 77.3517 21.4668 77.2436 21.7207 77.0942L23.6495 79.0242C22.8588 79.617 21.9235 80.0202 20.8984 80.1636ZM24.8265 77.8776L22.8819 75.9306C23.0325 75.6767 23.1576 75.4035 23.2353 75.1095H25.9597C25.814 76.1383 25.4241 77.0881 24.8265 77.8776ZM23.2353 73.4686C23.1588 73.1722 23.0422 72.8928 22.8916 72.6341L24.8265 70.6992C25.4253 71.4924 25.82 72.4349 25.9622 73.4661L23.2353 73.4686Z" fill="black"/>
<path id="Vector_2" d="M99.8864 64.7949C94.6514 64.7949 90.4062 69.0364 90.4062 74.2738C90.4062 74.6795 90.439 75.0755 90.4901 75.4666C91.0755 80.1393 95.0558 83.7552 99.8852 83.7552C104.849 83.7552 108.916 79.9389 109.326 75.0816C109.348 74.8131 109.368 74.5471 109.368 74.2714C109.37 69.0376 105.125 64.7949 99.8864 64.7949ZM95.1372 70.7016L97.0733 72.6365C96.9227 72.8953 96.8037 73.1722 96.7296 73.471H94.0028C94.1449 72.4361 94.5408 71.4948 95.1372 70.7016ZM93.9943 75.1107H96.7393C96.817 75.401 96.9312 75.6804 97.0818 75.933L95.1433 77.8691C94.5469 77.0821 94.1388 76.1383 93.9943 75.1107ZM99.0677 80.1648C98.0414 80.0227 97.1073 79.6206 96.3178 79.0242L98.2454 77.0966C98.4981 77.2448 98.7774 77.3529 99.0677 77.4282V80.1648ZM99.0677 71.1207C98.7689 71.196 98.4896 71.3162 98.2309 71.4705L96.2984 69.538C97.0915 68.9356 98.0353 68.536 99.0677 68.3926V71.1207ZM100.709 68.3926C101.744 68.536 102.685 68.9356 103.477 69.5392L101.546 71.4705C101.286 71.3162 101.006 71.196 100.709 71.1207V68.3926ZM100.709 80.1636V77.4282C100.999 77.3517 101.277 77.2436 101.531 77.0942L103.46 79.0242C102.669 79.617 101.736 80.0202 100.709 80.1636ZM104.637 77.8776L102.692 75.9306C102.843 75.6767 102.968 75.4035 103.046 75.1095H105.77C105.624 76.1383 105.237 77.0881 104.637 77.8776ZM103.048 73.4686C102.972 73.1722 102.855 72.8928 102.704 72.6341L104.639 70.6992C105.238 71.4924 105.633 72.4349 105.776 73.4661L103.048 73.4686Z" fill="black"/>
<path id="Vector_3" d="M120.073 61.7787L118.251 60.0381L118.255 54.5468C118.256 53.1051 117.723 51.7155 116.757 50.6467L110.022 43.1877V43.184C109.99 41.6342 108.877 40.3248 107.354 40.0394C99.3459 38.5344 74.4995 34.644 54.8335 39.9276C42.6836 43.1913 30.3309 49.7612 30.3309 49.7612C30.3309 49.7612 8.88065 52.4941 3.74037 59.194C1.95001 61.5261 1.19937 64.5893 0.927296 67.349C0.547119 71.2054 3.08325 74.7266 6.86195 75.578L8.84543 76.025C8.82843 75.9169 8.80292 75.8113 8.78956 75.6995C8.72397 75.1942 8.69117 74.723 8.69117 74.2699C8.69117 67.9915 13.7999 62.884 20.0783 62.884C26.3579 62.884 31.4666 67.9915 31.4666 74.2699C31.4666 74.5991 31.4447 74.9173 31.418 75.2392C31.3852 75.6266 31.3306 76.008 31.2589 76.3821L88.7385 76.4987C88.6863 76.2339 88.6341 75.9704 88.6001 75.6995C88.5345 75.1942 88.5017 74.723 88.5017 74.2699C88.5017 67.9915 93.6104 62.884 99.8888 62.884C106.168 62.884 111.277 67.9915 111.277 74.2699C111.277 74.5991 111.255 74.9173 111.229 75.2392C111.192 75.6825 111.119 76.1173 111.032 76.5437L111.816 76.5449L115.086 74.7533C118.497 72.8864 120.676 69.3628 120.823 65.4785L120.888 63.7792C120.915 63.0286 120.62 62.3022 120.073 61.7787ZM41.6306 50.5337L42.51 47.0198C42.51 47.0198 55.8235 40.0552 78.1057 40.8131V51.1969L42.4189 54.0124C42.4189 54.0124 42.6108 51.7848 41.6306 50.5337ZM98.8126 49.5644L82.0326 50.8884V41.0317C87.5506 41.4325 93.5472 42.3034 99.9835 43.8581C100.635 44.0148 101.157 44.4982 101.365 45.1347C101.573 45.7712 101.437 46.4708 101.004 46.9809L98.8126 49.5644Z" fill="black"/>
</g>
</g>
</g>
<defs>
<clipPath id="clip0_1_461">
<rect width="120" height="120" fill="white" transform="translate(0.888672 0.5)"/>
</clipPath>
</defs>
</svg>
