<svg width="121" height="121" viewBox="0 0 121 121" fill="none" xmlns="http://www.w3.org/2000/svg">
<g id="car-of-hatchback-model" clip-path="url(#clip0_1_453)">
<g id="Group">
<g id="Group_2">
<path id="Vector" d="M19.9635 64.7949C14.7285 64.7949 10.4834 69.0364 10.4834 74.2738C10.4834 74.6795 10.5162 75.0755 10.5672 75.4666C11.1539 80.1393 15.133 83.7552 19.9635 83.7552C24.9277 83.7552 28.9931 79.9389 29.4048 75.0816C29.4267 74.8131 29.4461 74.5471 29.4461 74.2714C29.4473 69.0376 25.2022 64.7949 19.9635 64.7949ZM15.2156 70.7016L17.1505 72.6365C16.9999 72.8953 16.882 73.1722 16.8067 73.471H14.0799C14.222 72.4361 14.6192 71.4948 15.2156 70.7016ZM14.0714 75.1107H16.8164C16.8942 75.401 17.0084 75.6804 17.159 75.933L15.2204 77.8704C14.6228 77.0821 14.2159 76.1383 14.0714 75.1107ZM19.1449 80.1648C18.1185 80.0227 17.1845 79.6206 16.395 79.0242L18.3226 77.0966C18.5752 77.2448 18.8546 77.3529 19.1449 77.4282V80.1648ZM19.1449 71.1207C18.8461 71.196 18.5667 71.3162 18.3068 71.4705L16.3755 69.538C17.1687 68.9356 18.1112 68.536 19.1449 68.3926V71.1207ZM20.7871 68.3926C21.8219 68.536 22.7632 68.9356 23.5564 69.5392L21.6251 71.4705C21.3652 71.3162 21.0859 71.196 20.7871 71.1207V68.3926ZM20.7871 80.1636V77.4282C21.0786 77.3517 21.3555 77.2436 21.6094 77.0942L23.5382 79.0242C22.7475 79.617 21.8122 80.0202 20.7871 80.1636ZM24.7151 77.8776L22.7705 75.9306C22.9212 75.6767 23.0463 75.4035 23.124 75.1095H25.8484C25.7026 76.1383 25.3127 77.0881 24.7151 77.8776ZM23.124 73.4686C23.0475 73.1722 22.9309 72.8928 22.7803 72.6341L24.7151 70.6992C25.314 71.4924 25.7087 72.4349 25.8508 73.4661L23.124 73.4686Z" fill="black"/>
<path id="Vector_2" d="M99.7751 64.7949C94.54 64.7949 90.2949 69.0364 90.2949 74.2738C90.2949 74.6795 90.3277 75.0755 90.3787 75.4666C90.9642 80.1393 94.9445 83.7552 99.7738 83.7552C104.738 83.7552 108.805 79.9389 109.215 75.0816C109.237 74.8131 109.256 74.5471 109.256 74.2714C109.259 69.0376 105.014 64.7949 99.7751 64.7949ZM95.0259 70.7016L96.962 72.6365C96.8114 72.8953 96.6923 73.1722 96.6183 73.471H93.8914C94.0335 72.4361 94.4295 71.4948 95.0259 70.7016ZM93.8829 75.1107H96.628C96.7057 75.401 96.8199 75.6804 96.9705 75.933L95.032 77.8691C94.4356 77.0821 94.0275 76.1383 93.8829 75.1107ZM98.9564 80.1648C97.9301 80.0227 96.996 79.6206 96.2065 79.0242L98.1341 77.0966C98.3868 77.2448 98.6661 77.3529 98.9564 77.4282V80.1648ZM98.9564 71.1207C98.6576 71.196 98.3782 71.3162 98.1195 71.4705L96.1871 69.538C96.9802 68.9356 97.924 68.536 98.9564 68.3926V71.1207ZM100.597 68.3926C101.632 68.536 102.574 68.9356 103.365 69.5392L101.434 71.4705C101.174 71.3162 100.895 71.196 100.597 71.1207V68.3926ZM100.597 80.1636V77.4282C100.888 77.3517 101.166 77.2436 101.42 77.0942L103.348 79.0242C102.558 79.617 101.625 80.0202 100.597 80.1636ZM104.525 77.8776L102.581 75.9306C102.731 75.6767 102.857 75.4035 102.934 75.1095H105.659C105.513 76.1383 105.125 77.0881 104.525 77.8776ZM102.937 73.4686C102.86 73.1722 102.744 72.8928 102.593 72.6341L104.528 70.6992C105.127 71.4924 105.521 72.4349 105.665 73.4661L102.937 73.4686Z" fill="black"/>
<path id="Vector_3" d="M119.962 61.7787L118.14 60.0381L118.144 54.5468C118.145 53.1051 117.612 51.7155 116.646 50.6467L109.911 43.1877V43.184C109.878 41.6342 108.766 40.3248 107.243 40.0394C99.2345 38.5344 74.3882 34.644 54.7222 39.9276C42.5723 43.1913 30.2196 49.7612 30.2196 49.7612C30.2196 49.7612 8.76933 52.4941 3.62904 59.194C1.83868 61.5261 1.08804 64.5893 0.815968 67.349C0.435791 71.2054 2.97193 74.7266 6.75062 75.578L8.7341 76.025C8.7171 75.9169 8.69159 75.8113 8.67823 75.6995C8.61264 75.1942 8.57985 74.723 8.57985 74.2699C8.57985 67.9915 13.6886 62.884 19.9669 62.884C26.2466 62.884 31.3553 67.9915 31.3553 74.2699C31.3553 74.5991 31.3334 74.9173 31.3067 75.2392C31.2739 75.6266 31.2192 76.008 31.1476 76.3821L88.6272 76.4987C88.575 76.2339 88.5228 75.9704 88.4887 75.6995C88.4232 75.1942 88.3904 74.723 88.3904 74.2699C88.3904 67.9915 93.4991 62.884 99.7775 62.884C106.057 62.884 111.166 67.9915 111.166 74.2699C111.166 74.5991 111.144 74.9173 111.117 75.2392C111.081 75.6825 111.008 76.1173 110.92 76.5437L111.705 76.5449L114.975 74.7533C118.386 72.8864 120.565 69.3628 120.712 65.4785L120.777 63.7792C120.804 63.0286 120.509 62.3022 119.962 61.7787ZM41.5192 50.5337L42.3986 47.0198C42.3986 47.0198 55.7121 40.0552 77.9944 40.8131V51.1969L42.3075 54.0124C42.3075 54.0124 42.4994 51.7848 41.5192 50.5337ZM98.7013 49.5644L81.9213 50.8884V41.0317C87.4393 41.4325 93.4359 42.3034 99.8722 43.8581C100.523 44.0148 101.046 44.4982 101.253 45.1347C101.462 45.7712 101.326 46.4708 100.892 46.9809L98.7013 49.5644Z" fill="black"/>
</g>
</g>
</g>
<defs>
<clipPath id="clip0_1_453">
<rect width="120" height="120" fill="white" transform="translate(0.777344 0.5)"/>
</clipPath>
</defs>
</svg>
