<svg width="121" height="120" viewBox="0 0 121 120" fill="none" xmlns="http://www.w3.org/2000/svg">
<g id="convertible" clip-path="url(#clip0_1_401)">
<g id="Group">
<g id="Group_2">
<path id="Vector" d="M1.13524 73.9976C1.16266 76.2542 4.55556 76.1805 4.70758 76.1763C4.54234 75.3622 4.45446 74.5176 4.45446 73.6522C4.45446 66.6341 10.1658 60.9205 17.1859 60.9205C24.2055 60.9205 29.9174 66.6341 29.9174 73.6522C29.9174 75.1237 29.6535 76.5296 29.193 77.8451C43.3605 76.9139 87.9663 77.2466 89.852 77.4564C90.0904 77.4828 90.581 77.4772 91.2576 77.4478C91.0537 76.5335 90.933 75.5876 90.933 74.6136C90.933 67.5269 96.6985 61.7614 103.787 61.7614C110.811 61.7614 116.534 67.4336 116.63 74.4351L118.836 73.5039C119.325 73.3 119.253 73.2814 118.782 73.0371C118.236 72.7536 117.904 71.8823 119.323 69.368C121.111 66.1925 119.446 63.8921 118.381 62.8542C117.999 62.4865 117.65 61.8104 117.641 61.2816C117.521 53.5661 114.585 50.9071 113.075 50.0471C112.614 49.7861 112.621 49.5979 113.144 49.5076C120.036 48.3161 115.37 48.3871 114.758 46.5445C114.119 44.6226 109.954 46.7039 107.792 47.265C106.994 47.4726 104.484 47.9183 101.635 48.4006C101.766 48.2569 101.847 48.1068 101.806 47.9472C101.691 47.5034 101.556 47.1516 101.426 46.8784C101.199 46.3979 100.684 45.6953 100.276 45.3543C99.771 44.9301 98.9492 44.5093 97.7717 44.7049C97.3803 44.7707 97.0459 44.9896 96.7602 45.3066C96.7005 45.2123 96.6407 45.1159 96.5857 45.0407C96.1019 44.3786 95.2329 43.6099 93.9291 43.9166C92.4212 44.2723 91.7668 47.8662 91.5019 50.0434C90.995 50.1051 90.3632 50.1494 89.9335 50.1494H81.7656C83.4412 48.0163 81.4939 46.6997 79.9438 46.5957C79.5291 46.5666 78.9247 46.8189 78.2635 47.1935C77.8731 46.5347 77.1737 46.1369 76.5428 46.0787C75.5108 45.9864 73.124 48.5656 71.9881 49.8686C71.9135 49.9551 71.8665 50.0517 71.8322 50.1472H50.6978V47.4464C50.6978 46.5183 49.9443 45.7648 49.0163 45.7648C48.0882 45.7648 47.3348 46.5183 47.3348 47.4464V50.1472H43.572C43.0417 50.1472 42.9279 49.8525 43.3139 49.4904C45.7509 47.2006 53.6684 39.6696 53.2613 38.8569C52.9842 38.3051 53.3169 37.4363 53.6498 36.7964C53.8936 36.3267 53.8493 35.6537 53.4075 35.3587C52.6579 34.8581 51.3394 34.2694 49.4784 34.5078C48.9521 34.5754 48.1228 34.8118 47.6459 35.0444C43.6119 37.0197 33.6841 45.5795 30.9228 47.9893C30.523 48.3391 29.771 48.6564 29.2412 48.7005C5.72496 50.6782 2.40966 58.336 1.98102 61.0466C1.89852 61.5705 1.57392 62.2552 1.24124 62.6682C-0.767816 65.1734 0.393261 70.1041 0.997422 72.1389C1.14846 72.6488 1.12986 73.4669 1.13524 73.9976Z" fill="black"/>
<path id="Vector_2" d="M82.5259 45.1924C82.5259 43.0342 81.3692 41.2832 79.9438 41.2832C79.0767 41.2832 78.3144 41.9356 77.8456 42.9273C77.4757 42.293 76.9411 41.8839 76.3409 41.8839C75.2292 41.8839 74.3286 43.248 74.3286 44.9295C74.3286 46.6115 75.2292 46.0267 76.3409 46.0267C76.7727 46.0267 77.1678 46.1111 77.4965 46.1204C77.8319 47.0607 78.7954 46.5992 79.944 46.5992C81.3712 46.5992 82.5259 47.3508 82.5259 45.1924Z" fill="black"/>
<path id="Vector_3" d="M94.1685 43.3057C94.6001 43.3057 94.9964 43.3902 95.3252 43.3995C95.6586 44.3397 96.6221 43.8761 97.7717 43.8761C99.1962 43.8761 100.355 44.6276 100.355 42.4692C100.355 40.3109 99.1964 38.5605 97.7717 38.5605C96.9056 38.5605 96.1413 39.2124 95.6725 40.2041C95.3046 39.5699 94.7697 39.1608 94.1685 39.1608C93.0581 39.1608 92.1553 40.5253 92.1553 42.2068C92.1553 43.8925 93.0559 43.3057 94.1685 43.3057Z" fill="black"/>
<path id="Vector_4" d="M17.1858 84.4636C21.6 84.4636 25.3894 81.8139 27.0695 78.0229C27.6614 76.6849 27.9956 75.2117 27.9956 73.6535C27.9956 67.6839 23.1566 62.8438 17.1858 62.8438C11.2149 62.8438 6.37549 67.6839 6.37549 73.6535C6.37549 74.457 6.46974 75.2359 6.63448 75.9884C7.70401 80.8347 12.0186 84.4636 17.1858 84.4636Z" fill="black"/>
<path id="Vector_5" d="M103.787 63.6855C97.7502 63.6855 92.855 68.5778 92.855 74.6158C92.855 75.5538 92.9864 76.4581 93.2102 77.3274C94.4168 82.0491 98.688 85.5453 103.787 85.5453C109.631 85.5453 114.39 80.9531 114.689 75.1817C114.698 74.9925 114.717 74.8072 114.717 74.6138C114.715 68.5781 109.822 63.6855 103.787 63.6855Z" fill="black"/>
</g>
</g>
</g>
<defs>
<clipPath id="clip0_1_401">
<rect width="120" height="120" fill="white" transform="translate(0.111328)"/>
</clipPath>
</defs>
</svg>
