<svg width="121" height="121" viewBox="0 0 121 121" fill="none" xmlns="http://www.w3.org/2000/svg">
<g id="convertible" clip-path="url(#clip0_1_443)">
<g id="Group">
<g id="Group_2">
<path id="Vector" d="M1.68993 74.4976C1.71735 76.7542 5.11025 76.6805 5.26227 76.6763C5.09703 75.8622 5.00915 75.0176 5.00915 74.1522C5.00915 67.1341 10.7205 61.4205 17.7406 61.4205C24.7602 61.4205 30.4721 67.1341 30.4721 74.1522C30.4721 75.6237 30.2082 77.0296 29.7477 78.3451C43.9151 77.4139 88.521 77.7466 90.4067 77.9564C90.6451 77.9828 91.1357 77.9772 91.8123 77.9478C91.6084 77.0335 91.4877 76.0876 91.4877 75.1136C91.4877 68.0269 97.2532 62.2614 104.342 62.2614C111.366 62.2614 117.088 67.9336 117.184 74.9351L119.391 74.0039C119.879 73.8 119.808 73.7814 119.337 73.5371C118.79 73.2536 118.459 72.3823 119.877 69.868C121.666 66.6925 120.001 64.3921 118.935 63.3542C118.554 62.9865 118.205 62.3104 118.196 61.7816C118.075 54.0661 115.14 51.4071 113.629 50.5471C113.168 50.2861 113.175 50.0979 113.699 50.0076C120.591 48.8161 115.925 48.8871 115.313 47.0445C114.673 45.1226 110.509 47.2039 108.347 47.765C107.549 47.9726 105.039 48.4183 102.19 48.9006C102.32 48.7569 102.402 48.6068 102.36 48.4472C102.246 48.0034 102.11 47.6516 101.981 47.3784C101.754 46.8979 101.238 46.1953 100.83 45.8543C100.326 45.4301 99.5039 45.0093 98.3264 45.2049C97.935 45.2707 97.6006 45.4896 97.3149 45.8066C97.2552 45.7123 97.1954 45.6159 97.1404 45.5407C96.6566 44.8786 95.7876 44.1099 94.4838 44.4166C92.9759 44.7723 92.3215 48.3662 92.0566 50.5434C91.5497 50.6051 90.9178 50.6494 90.4882 50.6494H82.3203C83.9959 48.5163 82.0486 47.1997 80.4985 47.0957C80.0838 47.0666 79.4794 47.3189 78.8182 47.6935C78.4278 47.0347 77.7284 46.6369 77.0975 46.5787C76.0654 46.4864 73.6787 49.0656 72.5428 50.3686C72.4681 50.4551 72.4211 50.5517 72.3869 50.6472H51.2525V47.9464C51.2525 47.0183 50.499 46.2648 49.571 46.2648C48.6429 46.2648 47.8894 47.0183 47.8894 47.9464V50.6472H44.1267C43.5964 50.6472 43.4826 50.3525 43.8686 49.9904C46.3056 47.7006 54.2231 40.1696 53.816 39.3569C53.5389 38.8051 53.8716 37.9363 54.2045 37.2964C54.4483 36.8267 54.404 36.1537 53.9621 35.8587C53.2126 35.3581 51.8941 34.7694 50.0331 35.0078C49.5068 35.0754 48.6774 35.3118 48.2006 35.5444C44.1666 37.5197 34.2388 46.0795 31.4774 48.4893C31.0777 48.8391 30.3257 49.1564 29.7959 49.2005C6.27965 51.1782 2.96435 58.836 2.53571 61.5466C2.45321 62.0705 2.12861 62.7552 1.79593 63.1682C-0.213129 65.6734 0.947948 70.6041 1.55211 72.6389C1.70315 73.1488 1.68455 73.9669 1.68993 74.4976Z" fill="black"/>
<path id="Vector_2" d="M83.0806 45.6924C83.0806 43.5342 81.9239 41.7832 80.4985 41.7832C79.6314 41.7832 78.8691 42.4356 78.4003 43.4273C78.0304 42.793 77.4958 42.3839 76.8955 42.3839C75.7839 42.3839 74.8833 43.748 74.8833 45.4295C74.8833 47.1115 75.7839 46.5267 76.8955 46.5267C77.3274 46.5267 77.7225 46.6111 78.0512 46.6204C78.3866 47.5607 79.3501 47.0992 80.4987 47.0992C81.9259 47.0992 83.0806 47.8508 83.0806 45.6924Z" fill="black"/>
<path id="Vector_3" d="M94.7232 43.8057C95.1548 43.8057 95.5511 43.8902 95.8799 43.8995C96.2133 44.8397 97.1768 44.3761 98.3264 44.3761C99.7508 44.3761 100.909 45.1276 100.909 42.9692C100.909 40.8109 99.7511 39.0605 98.3264 39.0605C97.4603 39.0605 96.696 39.7124 96.2272 40.7041C95.8593 40.0699 95.3244 39.6608 94.7232 39.6608C93.6128 39.6608 92.71 41.0253 92.71 42.7068C92.71 44.3925 93.6106 43.8057 94.7232 43.8057Z" fill="black"/>
<path id="Vector_4" d="M17.7405 84.9636C22.1547 84.9636 25.9441 82.3139 27.6242 78.5229C28.2161 77.1849 28.5502 75.7117 28.5502 74.1535C28.5502 68.1839 23.7113 63.3438 17.7405 63.3438C11.7696 63.3438 6.93018 68.1839 6.93018 74.1535C6.93018 74.957 7.02442 75.7359 7.18917 76.4884C8.25869 81.3347 12.5733 84.9636 17.7405 84.9636Z" fill="black"/>
<path id="Vector_5" d="M104.342 64.1855C98.3049 64.1855 93.4097 69.0778 93.4097 75.1158C93.4097 76.0538 93.5411 76.9581 93.7649 77.8274C94.9715 82.5491 99.2427 86.0453 104.342 86.0453C110.186 86.0453 114.945 81.4531 115.244 75.6817C115.253 75.4925 115.271 75.3072 115.271 75.1138C115.269 69.0781 110.377 64.1855 104.342 64.1855Z" fill="black"/>
</g>
</g>
</g>
<defs>
<clipPath id="clip0_1_443">
<rect width="120" height="120" fill="white" transform="translate(0.666016 0.5)"/>
</clipPath>
</defs>
</svg>
