<svg width="139" height="38" viewBox="0 0 139 38" fill="none" xmlns="http://www.w3.org/2000/svg">
<g id="logo" clip-path="url(#clip0_1_200)">
<g id="Logo Header">
<g id="Group 432">
<path id="Path 990" d="M28.9371 37.478H8.53708C6.27294 37.4754 4.1023 36.5748 2.50131 34.9738C0.900325 33.3728 -0.00028312 31.2022 -0.00292969 28.938V8.53802C-0.00028312 6.27389 0.900325 4.10325 2.50131 2.50226C4.1023 0.901271 6.27294 0.000693443 8.53708 -0.00195312H28.9371C31.2012 0.000693443 33.3719 0.901271 34.9728 2.50226C36.5738 4.10325 37.4744 6.27389 37.4771 8.53802V28.938C37.4744 31.2022 36.5738 33.3728 34.9728 34.9738C33.3719 36.5748 31.2012 37.4754 28.9371 37.478Z" fill="black"/>
<g id="Group 431">
<path id="Rectangle 2122" d="M31.3242 21.8359H25.9302V23.8339H31.3242V21.8359Z" fill="#00A1ED"/>
<path id="Rectangle 2123" d="M33.1222 18.2402H25.9302V20.2382H33.1222V18.2402Z" fill="#00A1ED"/>
<path id="Rectangle 2124" d="M34.9202 14.6445H25.9302V16.6425H34.9202V14.6445Z" fill="#00A1ED"/>
<path id="Rectangle 2125" d="M11.5473 21.8359H6.15332V23.8339H11.5473V21.8359Z" fill="#00A1ED"/>
<path id="Rectangle 2126" d="M11.547 18.2402H4.35498V20.2382H11.547V18.2402Z" fill="#00A1ED"/>
<path id="Rectangle 2127" d="M11.5471 14.6445H2.55713V16.6425H11.5471V14.6445Z" fill="#00A1ED"/>
<path id="Path 991" d="M26.9319 28.228H24.9319V14.073L18.7389 20.266L12.5459 14.073V28.228H10.5459V9.25L18.7369 17.441L26.9279 9.25L26.9319 28.228Z" fill="white"/>
<path id="Path 992" d="M23.3299 28.2283H21.3299V23.0613L18.7299 25.6613L16.1299 23.0613V28.2273H14.1299V18.2383L18.7249 22.8333L23.3199 18.2383L23.3299 28.2283Z" fill="white"/>
</g>
</g>
<g id="Group 433">
<path id="Path 993" d="M48.8463 11.8398H53.2703L55.6273 18.2398C55.9163 19.1048 56.1563 20.0668 56.4453 20.9808H56.5453C56.8343 20.0668 57.0743 19.1048 57.3623 18.2398L59.6233 11.8398H64.0483V27.4698H60.2963V22.8528C60.3758 20.9853 60.5524 19.1231 60.8253 17.2738H60.7253L59.4253 21.0258L57.5013 26.1949H55.2893L53.3653 21.0258L52.1143 17.2738H52.0143C52.2872 19.1231 52.4637 20.9853 52.5433 22.8528V27.4698H48.8433L48.8463 11.8398Z" fill="black"/>
<path id="Path 994" d="M66.8311 19.5867C66.8311 14.4407 69.7651 11.5547 74.0941 11.5547C78.4231 11.5547 81.3561 14.4647 81.3561 19.5867C81.3561 24.7337 78.4231 27.7627 74.0941 27.7627C69.7651 27.7627 66.8311 24.7287 66.8311 19.5867ZM77.1231 19.5867C77.1231 16.7497 75.9691 15.1137 74.0931 15.1137C72.2171 15.1137 71.0631 16.7487 71.0631 19.5867C71.0631 22.4247 72.2171 24.2037 74.0931 24.2037C75.9691 24.2037 77.1231 22.4287 77.1231 19.5867Z" fill="black"/>
<path id="Path 995" d="M86.4041 15.3048H82.2681V11.8398H94.6771V15.3018H90.5401V27.4698H86.4041V15.3048Z" fill="black"/>
<path id="Path 996" d="M95.5894 19.5867C95.5894 14.4407 98.5233 11.5547 102.852 11.5547C107.181 11.5547 110.114 14.4647 110.114 19.5867C110.114 24.7337 107.181 27.7627 102.852 27.7627C98.5233 27.7627 95.5894 24.7287 95.5894 19.5867ZM105.881 19.5867C105.881 16.7497 104.727 15.1137 102.851 15.1137C100.975 15.1137 99.8214 16.7487 99.8214 19.5867C99.8214 22.4247 100.976 24.2037 102.851 24.2037C104.726 24.2037 105.881 22.4287 105.881 19.5867Z" fill="black"/>
<path id="Path 997" d="M112.9 11.8398H118.813C122.18 11.8398 125.065 12.9939 125.065 16.8889C125.065 20.6639 122.18 22.2278 118.813 22.2278H117.034V27.4698H112.897L112.9 11.8398ZM118.528 18.9568C120.163 18.9568 121.028 18.2359 121.028 16.8889C121.028 15.5419 120.162 15.1089 118.528 15.1089H117.037V18.9558L118.528 18.9568ZM118.071 21.1458L120.861 18.4038L125.935 27.4698H121.313L118.071 21.1458Z" fill="black"/>
<path id="Path 998" d="M126.852 24.9718L133.252 15.3048H127.472V11.8398H138.341V14.3398L131.941 24.0068H138.386V27.4698H126.852V24.9718Z" fill="#00A1ED"/>
</g>
</g>
</g>
<defs>
<clipPath id="clip0_1_200">
<rect width="138.39" height="37.477" fill="white"/>
</clipPath>
</defs>
</svg>
