<svg width="121" height="121" viewBox="0 0 121 121" fill="none" xmlns="http://www.w3.org/2000/svg">
<g id="minivan-car" clip-path="url(#clip0_1_419)">
<g id="Group">
<g id="Group_2">
<path id="Vector" d="M23.3789 65.748C18.3408 65.748 14.2549 69.8304 14.2549 74.8709C14.2549 75.2618 14.2863 75.6444 14.3345 76.0185C14.9005 80.5183 18.7294 83.9961 23.3777 83.9961C28.1551 83.9961 32.0685 80.3252 32.4643 75.6504C32.486 75.3922 32.5041 75.1339 32.5041 74.8709C32.5053 69.8304 28.4206 65.748 23.3789 65.748ZM18.809 71.4329L20.671 73.2949C20.525 73.5435 20.4128 73.8126 20.3404 74.0974H17.717C17.8533 73.1018 18.2334 72.1968 18.809 71.4329ZM17.7073 75.6757H20.3488C20.4236 75.9569 20.5335 76.2236 20.6795 76.4674L18.8139 78.3329C18.2395 77.5739 17.8473 76.6665 17.7073 75.6757ZM22.5897 80.5388C21.6026 80.4037 20.7024 80.0151 19.9434 79.4431L21.7981 77.5872C22.0419 77.7296 22.3097 77.8346 22.5897 77.9082V80.5388ZM22.5897 71.836C22.3025 71.9108 22.0334 72.0254 21.7836 72.1726L19.9241 70.3131C20.6879 69.7338 21.5954 69.3477 22.5897 69.2113V71.836ZM24.1693 69.2113C25.1661 69.3477 26.0723 69.7338 26.835 70.3143L24.9766 72.1726C24.7268 72.0254 24.4577 71.9096 24.1693 71.836V69.2113ZM24.1693 80.5388V77.9058C24.4505 77.8322 24.7172 77.7284 24.9621 77.5824L26.8181 79.4407C26.0578 80.0151 25.1588 80.4013 24.1693 80.5388ZM27.95 78.3378L26.0783 76.4661C26.2231 76.2212 26.3438 75.9593 26.4186 75.6757H29.0396C28.9009 76.6665 28.528 77.5787 27.95 78.3378ZM26.4198 74.0974C26.3474 73.8126 26.2352 73.5435 26.0892 73.2949L27.9512 71.4329C28.528 72.1968 28.9069 73.1018 29.0433 74.0974H26.4198Z" fill="black"/>
<path id="Vector_2" d="M101.656 65.748C96.617 65.748 92.5322 69.8304 92.5322 74.8709C92.5322 75.2618 92.5624 75.6444 92.6107 76.0185C93.1754 80.5183 97.0067 83.9961 101.654 83.9961C106.43 83.9961 110.343 80.3252 110.74 75.6504C110.762 75.3922 110.778 75.1339 110.778 74.8709C110.78 69.8304 106.697 65.748 101.656 65.748ZM97.0852 71.4329L98.9472 73.2949C98.8024 73.5435 98.6889 73.8126 98.6177 74.0974H95.9931C96.1295 73.1018 96.5096 72.1968 97.0852 71.4329ZM95.9847 75.6757H98.6274C98.7022 75.9569 98.8108 76.2236 98.9556 76.4674L97.0912 78.3329C96.5156 77.5739 96.1234 76.6665 95.9847 75.6757ZM100.866 80.5388C99.8787 80.4037 98.9797 80.0151 98.2207 79.4431L100.075 77.5872C100.318 77.7296 100.587 77.8346 100.866 77.9082V80.5388ZM100.866 71.836C100.58 71.9108 100.31 72.0254 100.059 72.1726L98.199 70.3131C98.9641 69.7338 99.8703 69.3477 100.865 69.2113L100.866 71.836ZM102.447 69.2113C103.441 69.3477 104.348 69.7338 105.112 70.3143L103.253 72.1726C103.003 72.0254 102.733 71.9096 102.447 71.836V69.2113ZM102.447 80.5388V77.9058C102.725 77.8322 102.995 77.7284 103.237 77.5824L105.093 79.4407C104.334 80.0151 103.434 80.4013 102.447 80.5388ZM106.226 78.3378L104.354 76.4661C104.499 76.2212 104.62 75.9593 104.694 75.6757H107.317C107.177 76.6665 106.803 77.5787 106.226 78.3378ZM104.695 74.0974C104.622 73.8126 104.511 73.5435 104.367 73.2949L106.227 71.4329C106.804 72.1968 107.183 73.1018 107.321 74.0974H104.695Z" fill="black"/>
<path id="Vector_3" d="M119.909 58.3481C119.842 56.3329 119.287 54.3647 118.293 52.6113L111.741 41.0497C110.667 39.1564 108.699 37.9448 106.526 37.835C95.5444 37.2848 61.8744 35.8826 51.2746 38.7328C44.1043 40.6624 26.0107 52.557 26.0107 52.557C26.0107 52.557 6.1034 55.6402 2.30585 64.7196C2.30585 64.7196 0.667123 65.6765 0.369063 68.1298C0.21581 69.392 0.589893 71.3083 1.00259 72.9144C1.45511 74.6714 2.91163 75.994 4.70361 76.2727L13.3437 77.6267C13.2146 77.1548 13.1072 76.6758 13.0445 76.181C12.9902 75.7538 12.954 75.317 12.954 74.8693C12.954 69.1217 17.63 64.4469 23.3788 64.4469C29.1289 64.4469 33.8049 69.1217 33.8049 74.8693C33.8049 75.1698 33.7856 75.4642 33.7615 75.7562C33.6746 76.7747 33.4381 77.7485 33.0772 78.662L34.0933 78.7163L91.4946 77.1633C91.421 76.8399 91.3631 76.5141 91.3197 76.181C91.2642 75.7538 91.2304 75.317 91.2304 74.8693C91.2304 69.1217 95.9064 64.4469 101.654 64.4469C107.404 64.4469 112.08 69.1217 112.08 74.8693C112.08 75.1698 112.061 75.4642 112.035 75.7562C112.02 75.9493 111.986 76.1364 111.961 76.327L116.914 75.3158C118.957 74.8983 120.403 73.0713 120.33 70.9849L119.909 58.3481ZM86.8741 39.9709L88.193 53.1375L67.9515 53.9653V39.9046C73.8693 39.7682 80.6245 39.8297 86.8741 39.9709ZM35.796 54.9065L33.794 55.0187C33.2498 55.0489 32.7514 54.7183 32.568 54.2042C32.3846 53.6926 32.562 53.1218 33 52.7996C34.1766 51.9404 35.6174 50.9135 37.2223 49.8286V53.1881C36.2449 54.0147 35.796 54.9065 35.796 54.9065ZM40.7568 51.8246C40.6301 51.8294 40.5263 51.8608 40.4057 51.8728V47.7422C44.4868 45.155 49.1122 42.5859 53.0895 41.2983C54.8996 40.7131 58.2012 40.339 62.304 40.1157V54.1958L44.9128 54.9065C44.9128 54.9065 44.3094 51.6918 40.7568 51.8246ZM111.072 50.5478C110.465 51.6025 109.36 52.2722 108.145 52.3229L93.8429 52.907L92.5614 40.123C98.4719 40.3028 103.41 40.5248 105.911 40.66C107.069 40.7215 108.112 41.3888 108.652 42.4145L111.134 47.1244C111.702 48.202 111.678 49.4956 111.072 50.5478Z" fill="black"/>
</g>
</g>
</g>
<defs>
<clipPath id="clip0_1_419">
<rect width="119.999" height="120" fill="white" transform="translate(0.333984 0.5)"/>
</clipPath>
</defs>
</svg>
