<svg width="121" height="121" viewBox="0 0 121 121" fill="none" xmlns="http://www.w3.org/2000/svg">
<g id="minivan-car" clip-path="url(#clip0_1_435)">
<g id="Group">
<g id="Group_2">
<path id="Vector" d="M23.6006 65.748C18.5625 65.748 14.4766 69.8304 14.4766 74.8709C14.4766 75.2618 14.5079 75.6444 14.5562 76.0185C15.1222 80.5183 18.9511 83.9961 23.5994 83.9961C28.3768 83.9961 32.2902 80.3252 32.686 75.6504C32.7077 75.3922 32.7258 75.1339 32.7258 74.8709C32.727 69.8304 28.6423 65.748 23.6006 65.748ZM19.0307 71.4329L20.8927 73.2949C20.7467 73.5435 20.6345 73.8126 20.5621 74.0974H17.9386C18.075 73.1018 18.4551 72.1968 19.0307 71.4329ZM17.929 75.6757H20.5705C20.6453 75.9569 20.7551 76.2236 20.9011 76.4674L19.0356 78.3329C18.4612 77.5739 18.069 76.6665 17.929 75.6757ZM22.8114 80.5388C21.8243 80.4037 20.9241 80.0151 20.165 79.4431L22.0198 77.5872C22.2635 77.7296 22.5314 77.8346 22.8114 77.9082V80.5388ZM22.8114 71.836C22.5242 71.9108 22.2551 72.0254 22.0053 72.1726L20.1457 70.3131C20.9096 69.7338 21.817 69.3477 22.8114 69.2113V71.836ZM24.391 69.2113C25.3877 69.3477 26.294 69.7338 27.0566 70.3143L25.1983 72.1726C24.9485 72.0254 24.6794 71.9096 24.391 71.836V69.2113ZM24.391 80.5388V77.9058C24.6722 77.8322 24.9388 77.7284 25.1838 77.5824L27.0397 79.4407C26.2795 80.0151 25.3805 80.4013 24.391 80.5388ZM28.1716 78.3378L26.3 76.4661C26.4448 76.2212 26.5655 75.9593 26.6403 75.6757H29.2613C29.1225 76.6665 28.7497 77.5787 28.1716 78.3378ZM26.6415 74.0974C26.5691 73.8126 26.4569 73.5435 26.3109 73.2949L28.1728 71.4329C28.7497 72.1968 29.1286 73.1018 29.2649 74.0974H26.6415Z" fill="black"/>
<path id="Vector_2" d="M101.878 65.748C96.8387 65.748 92.7539 69.8304 92.7539 74.8709C92.7539 75.2618 92.7841 75.6444 92.8323 76.0185C93.3971 80.5183 97.2284 83.9961 101.876 83.9961C106.652 83.9961 110.565 80.3252 110.962 75.6504C110.984 75.3922 111 75.1339 111 74.8709C111.002 69.8304 106.918 65.748 101.878 65.748ZM97.3069 71.4329L99.1688 73.2949C99.024 73.5435 98.9106 73.8126 98.8394 74.0974H96.2148C96.3511 73.1018 96.7313 72.1968 97.3069 71.4329ZM96.2063 75.6757H98.8491C98.9239 75.9569 99.0325 76.2236 99.1773 76.4674L97.3129 78.3329C96.7373 77.5739 96.3451 76.6665 96.2063 75.6757ZM101.088 80.5388C100.1 80.4037 99.2014 80.0151 98.4424 79.4431L100.297 77.5872C100.54 77.7296 100.809 77.8346 101.088 77.9082V80.5388ZM101.088 71.836C100.802 71.9108 100.531 72.0254 100.28 72.1726L98.4207 70.3131C99.1857 69.7338 100.092 69.3477 101.086 69.2113L101.088 71.836ZM102.668 69.2113C103.663 69.3477 104.57 69.7338 105.334 70.3143L103.474 72.1726C103.225 72.0254 102.954 71.9096 102.668 71.836V69.2113ZM102.668 80.5388V77.9058C102.947 77.8322 103.216 77.7284 103.459 77.5824L105.315 79.4407C104.556 80.0151 103.655 80.4013 102.668 80.5388ZM106.448 78.3378L104.576 76.4661C104.721 76.2212 104.842 75.9593 104.915 75.6757H107.539C107.399 76.6665 107.025 77.5787 106.448 78.3378ZM104.916 74.0974C104.844 73.8126 104.733 73.5435 104.588 73.2949L106.449 71.4329C107.026 72.1968 107.405 73.1018 107.542 74.0974H104.916Z" fill="black"/>
<path id="Vector_3" d="M120.131 58.3481C120.063 56.3329 119.508 54.3647 118.515 52.6113L111.963 41.0497C110.889 39.1564 108.921 37.9448 106.747 37.835C95.7661 37.2848 62.0961 35.8826 51.4963 38.7328C44.3259 40.6624 26.2324 52.557 26.2324 52.557C26.2324 52.557 6.32508 55.6402 2.52753 64.7196C2.52753 64.7196 0.888803 65.6765 0.590743 68.1298C0.437489 69.392 0.811573 71.3083 1.22427 72.9144C1.67679 74.6714 3.13331 75.994 4.92529 76.2727L13.5654 77.6267C13.4363 77.1548 13.3289 76.6758 13.2661 76.181C13.2118 75.7538 13.1756 75.317 13.1756 74.8693C13.1756 69.1217 17.8517 64.4469 23.6005 64.4469C29.3505 64.4469 34.0266 69.1217 34.0266 74.8693C34.0266 75.1698 34.0073 75.4642 33.9831 75.7562C33.8963 76.7747 33.6597 77.7485 33.2989 78.662L34.315 78.7163L91.7163 77.1633C91.6427 76.8399 91.5848 76.5141 91.5413 76.181C91.4858 75.7538 91.452 75.317 91.452 74.8693C91.452 69.1217 96.1281 64.4469 101.876 64.4469C107.626 64.4469 112.302 69.1217 112.302 74.8693C112.302 75.1698 112.282 75.4642 112.257 75.7562C112.241 75.9493 112.208 76.1364 112.182 76.327L117.136 75.3158C119.179 74.8983 120.625 73.0713 120.552 70.9849L120.131 58.3481ZM87.0958 39.9709L88.4147 53.1375L68.1732 53.9653V39.9046C74.0909 39.7682 80.8462 39.8297 87.0958 39.9709ZM36.0177 54.9065L34.0157 55.0187C33.4715 55.0489 32.9731 54.7183 32.7897 54.2042C32.6063 53.6926 32.7837 53.1218 33.2217 52.7996C34.3983 51.9404 35.8391 50.9135 37.444 49.8286V53.1881C36.4666 54.0147 36.0177 54.9065 36.0177 54.9065ZM40.9785 51.8246C40.8518 51.8294 40.748 51.8608 40.6273 51.8728V47.7422C44.7085 45.155 49.3338 42.5859 53.3112 41.2983C55.1213 40.7131 58.4229 40.339 62.5257 40.1157V54.1958L45.1345 54.9065C45.1345 54.9065 44.5311 51.6918 40.9785 51.8246ZM111.294 50.5478C110.687 51.6025 109.582 52.2722 108.367 52.3229L94.0646 52.907L92.7831 40.123C98.6936 40.3028 103.631 40.5248 106.133 40.66C107.29 40.7215 108.334 41.3888 108.873 42.4145L111.356 47.1244C111.924 48.202 111.9 49.4956 111.294 50.5478Z" fill="black"/>
</g>
</g>
</g>
<defs>
<clipPath id="clip0_1_435">
<rect width="119.999" height="120" fill="white" transform="translate(0.555664 0.5)"/>
</clipPath>
</defs>
</svg>
