<svg width="121" height="121" viewBox="0 0 121 121" fill="none" xmlns="http://www.w3.org/2000/svg">
<g id="minivan-car" clip-path="url(#clip0_1_427)">
<g id="Group">
<g id="Group_2">
<path id="Vector" d="M23.4897 65.748C18.4517 65.748 14.3657 69.8304 14.3657 74.8709C14.3657 75.2618 14.3971 75.6444 14.4454 76.0185C15.0113 80.5183 18.8402 83.9961 23.4885 83.9961C28.2659 83.9961 32.1793 80.3252 32.5751 75.6504C32.5969 75.3922 32.615 75.1339 32.615 74.8709C32.6162 69.8304 28.5314 65.748 23.4897 65.748ZM18.9199 71.4329L20.7819 73.2949C20.6358 73.5435 20.5236 73.8126 20.4512 74.0974H17.8278C17.9642 73.1018 18.3443 72.1968 18.9199 71.4329ZM17.8182 75.6757H20.4597C20.5345 75.9569 20.6443 76.2236 20.7903 76.4674L18.9247 78.3329C18.3503 77.5739 17.9581 76.6665 17.8182 75.6757ZM22.7005 80.5388C21.7134 80.4037 20.8132 80.0151 20.0542 79.4431L21.9089 77.5872C22.1527 77.7296 22.4206 77.8346 22.7005 77.9082V80.5388ZM22.7005 71.836C22.4133 71.9108 22.1442 72.0254 21.8945 72.1726L20.0349 70.3131C20.7988 69.7338 21.7062 69.3477 22.7005 69.2113V71.836ZM24.2801 69.2113C25.2769 69.3477 26.1831 69.7338 26.9458 70.3143L25.0874 72.1726C24.8377 72.0254 24.5686 71.9096 24.2801 71.836V69.2113ZM24.2801 80.5388V77.9058C24.5613 77.8322 24.828 77.7284 25.073 77.5824L26.9289 79.4407C26.1687 80.0151 25.2697 80.4013 24.2801 80.5388ZM28.0608 78.3378L26.1892 76.4661C26.334 76.2212 26.4547 75.9593 26.5295 75.6757H29.1505C29.0117 76.6665 28.6388 77.5787 28.0608 78.3378ZM26.5307 74.0974C26.4583 73.8126 26.3461 73.5435 26.2 73.2949L28.062 71.4329C28.6388 72.1968 29.0177 73.1018 29.1541 74.0974H26.5307Z" fill="black"/>
<path id="Vector_2" d="M101.767 65.748C96.7278 65.748 92.6431 69.8304 92.6431 74.8709C92.6431 75.2618 92.6732 75.6444 92.7215 76.0185C93.2863 80.5183 97.1176 83.9961 101.765 83.9961C106.541 83.9961 110.454 80.3252 110.851 75.6504C110.873 75.3922 110.889 75.1339 110.889 74.8709C110.891 69.8304 106.808 65.748 101.767 65.748ZM97.196 71.4329L99.058 73.2949C98.9132 73.5435 98.7998 73.8126 98.7286 74.0974H96.1039C96.2403 73.1018 96.6204 72.1968 97.196 71.4329ZM96.0955 75.6757H98.7382C98.813 75.9569 98.9216 76.2236 99.0664 76.4674L97.2021 78.3329C96.6265 77.5739 96.2343 76.6665 96.0955 75.6757ZM100.977 80.5388C99.9896 80.4037 99.0906 80.0151 98.3315 79.4431L100.186 77.5872C100.429 77.7296 100.698 77.8346 100.977 77.9082V80.5388ZM100.977 71.836C100.691 71.9108 100.42 72.0254 100.169 72.1726L98.3098 70.3131C99.0749 69.7338 99.9811 69.3477 100.975 69.2113L100.977 71.836ZM102.557 69.2113C103.552 69.3477 104.459 69.7338 105.223 70.3143L103.364 72.1726C103.114 72.0254 102.843 71.9096 102.557 71.836V69.2113ZM102.557 80.5388V77.9058C102.836 77.8322 103.105 77.7284 103.348 77.5824L105.204 79.4407C104.445 80.0151 103.545 80.4013 102.557 80.5388ZM106.337 78.3378L104.465 76.4661C104.61 76.2212 104.731 75.9593 104.804 75.6757H107.428C107.288 76.6665 106.914 77.5787 106.337 78.3378ZM104.806 74.0974C104.733 73.8126 104.622 73.5435 104.477 73.2949L106.338 71.4329C106.915 72.1968 107.294 73.1018 107.431 74.0974H104.806Z" fill="black"/>
<path id="Vector_3" d="M120.02 58.3481C119.953 56.3329 119.397 54.3647 118.404 52.6113L111.852 41.0497C110.778 39.1564 108.81 37.9448 106.636 37.835C95.6552 37.2848 61.9853 35.8826 51.3854 38.7328C44.2151 40.6624 26.1215 52.557 26.1215 52.557C26.1215 52.557 6.21424 55.6402 2.41669 64.7196C2.41669 64.7196 0.777963 65.6765 0.479903 68.1298C0.326649 69.392 0.700733 71.3083 1.11343 72.9144C1.56595 74.6714 3.02247 75.994 4.81445 76.2727L13.4546 77.6267C13.3255 77.1548 13.2181 76.6758 13.1553 76.181C13.101 75.7538 13.0648 75.317 13.0648 74.8693C13.0648 69.1217 17.7408 64.4469 23.4897 64.4469C29.2397 64.4469 33.9157 69.1217 33.9157 74.8693C33.9157 75.1698 33.8964 75.4642 33.8723 75.7562C33.7854 76.7747 33.5489 77.7485 33.1881 78.662L34.2041 78.7163L91.6055 77.1633C91.5319 76.8399 91.4739 76.5141 91.4305 76.181C91.375 75.7538 91.3412 75.317 91.3412 74.8693C91.3412 69.1217 96.0172 64.4469 101.765 64.4469C107.515 64.4469 112.191 69.1217 112.191 74.8693C112.191 75.1698 112.172 75.4642 112.146 75.7562C112.131 75.9493 112.097 76.1364 112.071 76.327L117.025 75.3158C119.068 74.8983 120.514 73.0713 120.441 70.9849L120.02 58.3481ZM86.9849 39.9709L88.3039 53.1375L68.0623 53.9653V39.9046C73.9801 39.7682 80.7353 39.8297 86.9849 39.9709ZM35.9068 54.9065L33.9049 55.0187C33.3606 55.0489 32.8623 54.7183 32.6788 54.2042C32.4954 53.6926 32.6728 53.1218 33.1109 52.7996C34.2874 51.9404 35.7282 50.9135 37.3332 49.8286V53.1881C36.3557 54.0147 35.9068 54.9065 35.9068 54.9065ZM40.8677 51.8246C40.741 51.8294 40.6372 51.8608 40.5165 51.8728V47.7422C44.5976 45.155 49.223 42.5859 53.2004 41.2983C55.0104 40.7131 58.312 40.339 62.4149 40.1157V54.1958L45.0236 54.9065C45.0236 54.9065 44.4202 51.6918 40.8677 51.8246ZM111.183 50.5478C110.576 51.6025 109.471 52.2722 108.256 52.3229L93.9538 52.907L92.6722 40.123C98.5827 40.3028 103.521 40.5248 106.022 40.66C107.179 40.7215 108.223 41.3888 108.763 42.4145L111.245 47.1244C111.813 48.202 111.789 49.4956 111.183 50.5478Z" fill="black"/>
</g>
</g>
</g>
<defs>
<clipPath id="clip0_1_427">
<rect width="119.999" height="120" fill="white" transform="translate(0.444824 0.5)"/>
</clipPath>
</defs>
</svg>
