<svg width="121" height="121" viewBox="0 0 121 121" fill="none" xmlns="http://www.w3.org/2000/svg">
<g id="sedan-car-model" clip-path="url(#clip0_1_411)">
<g id="Group">
<g id="Group_2">
<path id="Vector" d="M21.1694 63.7402C16.1689 63.7402 12.1143 67.7937 12.1143 72.7954C12.1143 73.181 12.1458 73.5605 12.1943 73.9327C12.7557 78.396 16.5545 81.8481 21.1682 81.8481C25.9067 81.8481 29.7917 78.2057 30.1857 73.5665C30.2063 73.3131 30.2233 73.0549 30.2233 72.7942C30.2245 67.7937 26.1711 63.7402 21.1694 63.7402ZM16.637 69.3833L18.4824 71.23C18.3394 71.4761 18.2266 71.7417 18.1538 72.0254H15.5518C15.6851 71.0408 16.0622 70.1412 16.637 69.3833ZM15.5396 73.5932H18.1623C18.2363 73.8721 18.3454 74.1364 18.4909 74.3789L16.6406 76.228C16.0671 75.4763 15.6815 74.5766 15.5396 73.5932ZM20.3861 78.4203C19.4052 78.2833 18.514 77.8989 17.7598 77.3302L19.6004 75.4884C19.8429 75.6303 20.1084 75.7345 20.3861 75.8073V78.4203ZM20.3861 69.7835C20.1012 69.8586 19.8344 69.9702 19.5858 70.1169L17.7416 68.2727C18.4994 67.6967 19.3991 67.316 20.3861 67.179V69.7835ZM21.9539 67.1765C22.9409 67.3136 23.8418 67.6967 24.5984 68.2714L22.7554 70.1157C22.508 69.969 22.2388 69.8574 21.9551 69.7823L21.9539 67.1765ZM21.9539 78.4179V75.8085C22.2328 75.7345 22.4959 75.6315 22.7384 75.4884L24.5802 77.3302C23.826 77.8989 22.9336 78.2808 21.9539 78.4179ZM25.703 76.2365L23.8467 74.3777C23.9922 74.134 24.1098 73.8733 24.1837 73.5944H26.7858C26.6476 74.5742 26.2778 75.4811 25.703 76.2365ZM24.1874 72.0254C24.1134 71.7417 24.0019 71.4761 23.8588 71.23L25.7067 69.3833C26.2778 70.1412 26.6549 71.0409 26.7907 72.0266H24.1874V72.0254Z" fill="black"/>
<path id="Vector_2" d="M96.3569 63.7402C91.3564 63.7402 87.3018 67.7937 87.3018 72.7954C87.3018 73.181 87.3333 73.5605 87.3818 73.9327C87.9432 78.396 91.742 81.8481 96.3545 81.8481C101.093 81.8481 104.978 78.2057 105.373 73.5665C105.394 73.3131 105.411 73.0549 105.411 72.7942C105.413 67.7937 101.359 63.7402 96.3569 63.7402ZM91.8245 69.3833L93.6687 71.23C93.5257 71.4761 93.4129 71.7417 93.3401 72.0254H90.7381C90.8726 71.0408 91.2497 70.1412 91.8245 69.3833ZM90.7284 73.5932H93.351C93.425 73.8721 93.5341 74.1364 93.6796 74.3789L91.8305 76.228C91.2546 75.4763 90.8678 74.5766 90.7284 73.5932ZM95.5736 78.4203C94.5927 78.2833 93.7015 77.8989 92.9473 77.3302L94.7879 75.4884C95.0304 75.6303 95.2959 75.7345 95.5736 75.8073V78.4203ZM95.5736 69.7835C95.2887 69.8586 95.0219 69.9702 94.7733 70.1169L92.9291 68.2727C93.6869 67.6967 94.5854 67.316 95.5736 67.179V69.7835ZM97.1426 67.1765C98.1296 67.3136 99.0305 67.6967 99.7871 68.2714L97.9429 70.1157C97.6955 69.969 97.4263 69.855 97.1426 69.7823V67.1765ZM97.1426 78.4179V75.8085C97.4215 75.7345 97.6846 75.6315 97.9271 75.4884L99.7689 77.3302C99.0148 77.8989 98.1211 78.2808 97.1426 78.4179ZM100.891 76.2365L99.0341 74.3801C99.1797 74.1352 99.2985 73.8757 99.3712 73.5956H101.973C101.835 74.5742 101.466 75.4811 100.891 76.2365ZM99.3749 72.0254C99.3009 71.7417 99.1906 71.4761 99.0463 71.23L100.893 69.3833C101.465 70.1412 101.841 71.0409 101.978 72.0266H99.3749V72.0254Z" fill="black"/>
<path id="Vector_3" d="M118.1 59.0523V52.3519C118.1 51.274 117.316 50.3609 116.252 50.1948C113.697 49.7947 109.168 49.0393 107.134 48.4124C104.216 47.5127 92.9447 42.7402 89.0416 41.8441C85.1372 40.9481 67.5338 36.1635 50.6736 42.0078C47.8206 42.996 34.986 49.1314 27.4392 52.3216C25.2167 52.3701 3.21781 56.9558 2.04651 60.0987C0.875211 63.2428 0.507816 64.7681 0.291987 65.566C0.0761573 66.3638 0.291987 70.1821 1.92647 72.8411C3.59248 73.7833 6.79961 74.4162 10.5075 74.8406C10.4651 74.6138 10.419 74.3907 10.3899 74.1616C10.3256 73.6717 10.2953 73.2243 10.2953 72.7975C10.2953 66.8015 15.1721 61.9223 21.1692 61.9223C27.1664 61.9223 32.0432 66.8003 32.0432 72.7975C32.0432 73.1055 32.0226 73.411 31.9995 73.7117C31.9425 74.3847 31.8213 75.0382 31.6455 75.6675C31.654 75.6675 31.6746 75.6675 31.6746 75.6675L85.6513 74.5811C85.6271 74.4417 85.5956 74.3034 85.5774 74.1616C85.5131 73.6741 85.4828 73.2255 85.4828 72.7975C85.4828 66.8015 90.3596 61.9236 96.3567 61.9236C102.354 61.9236 107.232 66.8003 107.232 72.7975C107.232 72.8205 107.229 72.8399 107.228 72.8618L107.459 72.8423L116.687 71.1048C116.687 71.1048 120.222 69.223 120.222 64.0455C120.223 60.5922 118.1 59.0523 118.1 59.0523ZM64.5558 52.6999L44.3976 53.3171C44.7686 50.2967 42.9802 49.6189 42.9802 49.6189C50.9937 42.3449 67.1446 42.0988 67.1446 42.0988L64.5558 52.6999ZM87.1791 51.7771L68.8094 52.3943L70.4742 42.1C79.9682 41.9763 85.3919 44.0716 85.3919 44.0716L88.1043 48.4488L87.1791 51.7771ZM97.5353 51.7141H92.4172L87.3004 44.6875C91.1392 46.2153 94.2118 47.7213 96.0415 48.6731C97.1522 49.2502 97.7584 50.4834 97.5353 51.7141Z" fill="black"/>
</g>
</g>
</g>
<defs>
<clipPath id="clip0_1_411">
<rect width="120" height="120" fill="white" transform="translate(0.222656 0.5)"/>
</clipPath>
</defs>
</svg>
